<svg xmlns="http://www.w3.org/2000/svg" width="30" height="30"><path d="M29.17 16.569a14.008 14.008 0 1 1-28.016 0 14.008 14.008 0 1 1 28.017 0z" style="color:#000;fill:#1a1a1a;stroke:#d4d4d4;stroke-width:1.02777779;stroke-opacity:1;marker:none;visibility:visible;display:inline;overflow:visible;enable-background:accumulate" transform="matrix(.97297 0 0 .97297 330.508 -68.73)"/><path d="M345.296 957.89v11.863M357.16 969.753h-1.71" style="fill:#1a1a1a;stroke:#d4d4d4;stroke-width:1px;stroke-linecap:butt;stroke-linejoin:miter;stroke-opacity:1" transform="translate(0 -1022.362)"/><path d="M345.296 981.616v-2.018" style="fill:#1a1a1a;stroke:#d4d4d4;stroke-width:.99999994px;stroke-linecap:butt;stroke-linejoin:miter;stroke-opacity:1" transform="translate(0 -1022.362)"/><path d="M333.433 969.753h11.863" style="fill:#1a1a1a;stroke:#d4d4d4;stroke-width:1px;stroke-linecap:butt;stroke-linejoin:miter;stroke-opacity:1" transform="translate(0 -1022.362)"/><path d="m15 1025.992-11.242 9.923h2.248v12.818h6.746v-7.565h4.65v7.565h6.592v-12.818h2.248L15 1025.992z" style="font-size:12px;fill:none;stroke:none" transform="translate(0 -1022.362)"/><path d="M23.634 1028.728v18.708H8.524a2.159 2.159 0 1 1 0-4.317h13.671v-17.27H7.805a2.887 2.887 0 0 0-2.879 2.879v17.269a2.887 2.887 0 0 0 2.879 2.878h17.269v-20.147h-1.44zm-14.39 15.83h12.951v1.439H9.244z" style="fill:#1a1a1a;fill-opacity:1" transform="translate(0 -1022.362)"/></svg>